<?xml version="1.0" encoding="UTF-8" standalone="no"?>
<svg width="758px" height="345px" viewBox="0 0 758 345" version="1.1" xmlns="http://www.w3.org/2000/svg" xmlns:xlink="http://www.w3.org/1999/xlink" xmlns:sketch="http://www.bohemiancoding.com/sketch/ns">
    <!-- Generator: Sketch 3.2.2 (9983) - http://www.bohemiancoding.com/sketch -->
    <title>Group</title>
    <desc>Created with Sketch.</desc>
    <defs>
        <path id="path-1" d="M399.350366,5.85609718 C394.532349,3.15115095 386.727186,3.15894363 381.921102,5.87121453 L255.634727,77.1398034 C250.826827,79.8530987 246.929254,86.5360059 246.929254,92.046428 L246.929254,237.275817 C246.929254,242.795223 250.809991,249.504955 255.594559,252.260946 L381.96127,325.050281 C386.746985,327.806933 394.508773,327.816992 399.310044,325.06568 L526.387276,252.245547 C531.183024,249.497399 535.070746,242.786239 535.070746,237.275817 L535.070746,92.046428 C535.070746,86.5270219 531.16984,79.8626004 526.346954,77.1549208 L399.350366,5.85609718 Z"></path>
        <path id="path-2" d="M153.350366,5.85609718 C148.532349,3.15115095 140.727186,3.15894363 135.921102,5.87121453 L9.63472703,77.1398034 C4.82682729,79.8530987 0.929254459,86.5360059 0.929254459,92.046428 L0.929254459,237.275817 C0.929254459,242.795223 4.8099906,249.504955 9.59455911,252.260946 L135.96127,325.050281 C140.746985,327.806933 148.508773,327.816992 153.310044,325.06568 L280.387276,252.245547 C285.183024,249.497399 289.070746,242.786239 289.070746,237.275817 L289.070746,92.046428 C289.070746,86.5270219 285.16984,79.8626004 280.346954,77.1549208 L153.350366,5.85609718 Z"></path>
    </defs>
    <g id="Page-1" stroke="none" stroke-width="1" fill="none" fill-rule="evenodd" sketch:type="MSPage">
        <g id="Desktop-HD" sketch:type="MSArtboardGroup" transform="translate(-341.000000, -1271.000000)">
            <g id="PIX" sketch:type="MSLayerGroup" transform="translate(0.000000, 1092.000000)">
                <g id="THIS-IS-PIX.-+-Group" transform="translate(268.000000, 38.000000)">
                    <g id="Group" transform="translate(73.000000, 148.000000)">
                        <rect id="Rectangle-17" fill="#063D50" sketch:type="MSShapeGroup" x="0" y="98" width="758" height="135.036572" rx="100"></rect>
                        <g id="Path-34">
                            <use stroke="none" sketch:type="MSShapeGroup" xlink:href="#path-1"></use>
                            <use stroke="#FFFFFF" stroke-width="10" xlink:href="#path-1"></use>
                        </g>
                        <g id="Path-34-+-Rectangle-2-+-34%" transform="translate(246.000000, 0.000000)">
                            <g id="Path-34-+-Rectangle-2">
                                <mask id="mask-3" sketch:name="Path 38" fill="white">
                                    <use xlink:href="#path-2"></use>
                                </mask>
                                <g id="Path-38">
                                    <use stroke="#000000" stroke-width="10" fill="#063D50" fill-rule="evenodd" sketch:type="MSShapeGroup" xlink:href="#path-2"></use>
                                    <use stroke="none" fill="none" xlink:href="#path-2"></use>
                                </g>
                                <path d="M-16.75,183.46231 C-16.75,183.46231 -2.34645811,216.632385 63.7822619,216.632385 C103.359969,216.632385 133.240543,196.487151 204.885418,183.46231 C276.530294,170.43747 306.75,198.356712 306.75,198.356712 L306.75,330.041641 L-16.75,330.041641 L-16.75,183.46231 Z" id="Rectangle-2" fill="#00A3DA" sketch:type="MSShapeGroup" mask="url(#mask-3)"></path>
                            </g>
                            <text id="34%" sketch:type="MSTextLayer" font-family="Gotham HTF" font-size="77" font-weight="420" sketch:alignment="middle" fill="#F6F6F6">
                                <tspan x="62.302" y="186">34%</tspan>
                            </text>
                        </g>
                        <path d="M103.182799,204.792546 C100.490178,204.164256 96.1220478,204.164846 93.4319543,204.792546 L54.8754225,213.789236 C52.182801,214.417526 51.0652679,212.965853 52.3873254,210.532137 L95.9200513,130.394719 C97.2385348,127.967583 99.3726447,127.961003 100.694702,130.394719 L144.227428,210.532136 C145.545912,212.959272 144.429425,214.416936 141.739331,213.789236 L103.182799,204.792546 Z" id="Path-35" fill="#D96262" sketch:type="MSShapeGroup" transform="translate(98.307377, 170.463428) scale(1, -1) translate(-98.307377, -170.463428) "></path>
                        <path d="M664.182799,195.792546 C661.490178,195.164256 657.122048,195.164846 654.431954,195.792546 L615.875423,204.789236 C613.182801,205.417526 612.065268,203.965853 613.387325,201.532137 L656.920051,121.394719 C658.238535,118.967583 660.372645,118.961003 661.694702,121.394719 L705.227428,201.532136 C706.545912,203.959272 705.429425,205.416936 702.739331,204.789236 L664.182799,195.792546 Z" id="Path-35" fill="#66B976" sketch:type="MSShapeGroup"></path>
                    </g>
                </g>
            </g>
        </g>
    </g>
</svg>